<svg width="97" height="15" fill="none" xmlns="http://www.w3.org/2000/svg"><g clip-path="url(#clip0_0_32)"><path fill-rule="evenodd" clip-rule="evenodd" d="M2.002 0l6.287 12.557-.79 1.563L.168 0h1.833zm20.385 0l-7.27 14.12L7.46 0h1.774l5.882 11.051a178.163 178.163 0 002.131-4.217c.38-.778.756-1.547 1.129-2.306.372-.76.71-1.453 1.012-2.08.302-.628.556-1.162.762-1.6.206-.44.34-.722.405-.848h1.832zm13.875 1.374V0h-9.335v14.138h9.335v-1.374h-7.907V7.775h6.595V6.401h-6.595V1.374h7.907zm4.155 12.764V0h1.427v12.764h7.907v1.374h-9.334zM53.906 0v14.138h6.923c.103 0 .332-.034.685-.103.354-.07.736-.223 1.148-.461a4.24 4.24 0 00.607-.443 2.96 2.96 0 00.57-.668 3.85 3.85 0 00.414-.932 4.31 4.31 0 00.164-1.252c0-.54-.071-1.01-.212-1.412a3.786 3.786 0 00-.54-1.035 2.854 2.854 0 00-.743-.697 4.155 4.155 0 00-.839-.414c.283-.276.527-.656.733-1.139.206-.483.308-1.064.308-1.741 0-.503-.054-.935-.163-1.3a3.778 3.778 0 00-.415-.94 2.9 2.9 0 00-.56-.66 3.702 3.702 0 00-1.225-.725 3.9 3.9 0 00-.539-.15A3.156 3.156 0 0059.653 0h-5.747zm6.885 12.764c.051 0 .193-.022.424-.066a2.22 2.22 0 00.743-.31c.263-.164.498-.411.704-.744.205-.333.308-.788.308-1.365s-.103-1.032-.308-1.365c-.206-.332-.44-.583-.704-.753a2.122 2.122 0 00-.752-.32 3.716 3.716 0 00-.434-.066h-5.439v4.99h5.458zm-.723-6.438c-.225.05-.364.075-.415.075h-4.32V1.374h4.32c.026 0 .148.02.366.057.219.037.457.135.714.292.257.156.492.401.704.734.212.332.318.794.318 1.384 0 .577-.1 1.035-.299 1.374-.199.339-.424.596-.675.772a2.04 2.04 0 01-.713.339zM78.638 0v1.374h-7.907v5.027h6.596v1.374h-6.596v4.99h7.908v1.373h-9.335V0h9.335zm10.693 8.114l4.822 6.024h1.89L90.431 7.06 96.043 0h-1.89L89.33 6.024 84.78 0h-2.14l5.611 7.06-5.612 7.078h2.14l4.552-6.024z" fill="#E4E5EA"/></g><defs><clipPath id="clip0_0_32"><path fill="#fff" d="M0 0h97v15H0z"/></clipPath></defs></svg>