<svg width="35" height="24" fill="none" xmlns="http://www.w3.org/2000/svg"><g clip-path="url(#clip0_0_34)"><path fill-rule="evenodd" clip-rule="evenodd" d="M24.595 0H0v12.784h1.32V1.29h21.954v4.238h-2.19v.01h-.016a34.92 34.92 0 00-.37.774 251.657 251.657 0 01-1.623 3.365 790.01 790.01 0 00-1.032 2.109 160.12 160.12 0 01-1.95 3.856L10.715 5.536H9.092l7.002 12.909 6.007-11.66h2.492v-.014h.002V0zM0 17.196h.006v-.014H8.47L2.424 5.537H4.1l5.75 11.48-.723 1.429-.011-.021v.015H1.32v4.271h21.953V11.184h1.32V24H0v-6.804zM33.695 24V0h1.357v24h-1.357z" fill="#E4E5EA"/></g><defs><clipPath id="clip0_0_34"><path fill="#fff" d="M0 0h35v24H0z"/></clipPath></defs></svg>