<svg width="20" height="19" fill="none" xmlns="http://www.w3.org/2000/svg"><g fill="#E4E5EA"><path d="M10.774 2a.504.504 0 00-.516.49c0 .271.231.49.516.49 3.42 0 6.194 2.635 6.194 5.885 0 .27.23.49.516.49.285 0 .516-.22.516-.49C18 5.073 14.765 2 10.774 2zM4.167 3.6c.293-.143.808-.216 1.103.046.37.327.939.9 1.33 1.399.39.5.938 1.26 1.016 1.43.078.17.165.769-.226 1.13a5.23 5.23 0 01-.886.638.825.825 0 00-.182.984c.278.6.877 1.776 1.91 2.653 1.034.876 2.129 1.337 2.815 1.484.044 0 .1.01.165.021.232.041.579.102.877-.198.306-.308.585-.63.687-.754a1.182 1.182 0 011.198-.246c.721.246 1.546.785 1.92 1.038.299.203.964.684 1.26.9.18.13.48.52.243 1.03-.296.638-1.555 2.045-2.684 2.045-.417 0-4.448-1.084-8.01-4.144C4.43 11.102 2.472 7.71 2.136 6.567c-.128-.271-.278-.94.139-1.445.417-.504.886-1.03 1.893-1.522zm6.607 2.323a.504.504 0 00-.516.49c0 .27.231.49.516.49 1.14 0 2.065.878 2.065 1.962 0 .27.23.49.516.49.285 0 .516-.22.516-.49 0-1.625-1.386-2.942-3.097-2.942z"/><path d="M10.258 4.452c0-.271.231-.49.516-.49 2.85 0 5.162 2.195 5.162 4.903 0 .27-.232.49-.517.49a.504.504 0 01-.516-.49c0-2.167-1.848-3.923-4.129-3.923a.504.504 0 01-.516-.49z"/></g></svg>