<svg width="20" height="20" fill="none" xmlns="http://www.w3.org/2000/svg"><path fill-rule="evenodd" clip-rule="evenodd" d="M15.669 4.325A7.948 7.948 0 0010.034 2C5.643 2 2.068 5.557 2.067 9.928c0 1.398.366 2.761 1.063 3.964L2 18l4.223-1.103a8 8 0 003.807.965h.004c4.39 0 7.964-3.556 7.966-7.928a7.852 7.852 0 00-2.331-5.609zm-5.635 12.2h-.003a6.632 6.632 0 01-3.37-.92l-.242-.143-2.506.654.668-2.431-.157-.25a6.555 6.555 0 01-1.012-3.507c.002-3.633 2.972-6.59 6.624-6.59a6.606 6.606 0 014.681 1.933 6.55 6.55 0 011.938 4.663c-.002 3.633-2.972 6.59-6.621 6.59zm3.632-4.937c-.2-.1-1.178-.579-1.36-.645-.182-.066-.315-.099-.448.1a12.25 12.25 0 01-.63.776c-.117.132-.233.148-.432.049-.199-.099-.84-.308-1.6-.983a5.972 5.972 0 01-1.108-1.373c-.117-.198-.013-.305.087-.404.09-.088.2-.231.299-.347.099-.116.132-.198.198-.33.067-.133.034-.249-.016-.348-.05-.1-.449-1.074-.615-1.47-.16-.385-.324-.334-.447-.34a8.614 8.614 0 00-.38-.006.736.736 0 00-.532.247c-.183.199-.697.677-.697 1.652 0 .976.714 1.918.813 2.05.1.133 1.404 2.133 3.4 2.992.476.204.847.326 1.136.418.476.15.91.129 1.254.078.382-.056 1.177-.479 1.343-.941.166-.463.166-.86.117-.943-.05-.083-.184-.133-.382-.232z" fill="#E4E5EA"/></svg>